<mxfile host="65bd71144e">
    <diagram id="NJQoGea95YdGdegbrHYB" name="ページ1">
        <mxGraphModel dx="768" dy="1816" grid="1" gridSize="10" guides="1" tooltips="1" connect="1" arrows="1" fold="1" page="1" pageScale="1" pageWidth="827" pageHeight="1169" background="#ffffff" math="0" shadow="0">
            <root>
                <mxCell id="0"/>
                <mxCell id="1" parent="0"/>
                <mxCell id="40" value="&lt;font color=&quot;#0c0d0d&quot;&gt;VPC&lt;/font&gt;" style="points=[[0,0],[0.25,0],[0.5,0],[0.75,0],[1,0],[1,0.25],[1,0.5],[1,0.75],[1,1],[0.75,1],[0.5,1],[0.25,1],[0,1],[0,0.75],[0,0.5],[0,0.25]];outlineConnect=0;gradientColor=none;html=1;whiteSpace=wrap;fontSize=12;fontStyle=0;container=1;pointerEvents=0;collapsible=0;recursiveResize=0;shape=mxgraph.aws4.group;grIcon=mxgraph.aws4.group_vpc;strokeColor=#248814;fillColor=none;verticalAlign=top;align=left;spacingLeft=30;fontColor=#AAB7B8;dashed=0;" parent="1" vertex="1">
                    <mxGeometry x="390" y="-100" width="630" height="480" as="geometry"/>
                </mxCell>
                <mxCell id="51" value="&lt;span style=&quot;color: rgb(22, 25, 31); font-family: &amp;quot;Amazon Ember&amp;quot;, &amp;quot;Helvetica Neue&amp;quot;, Roboto, Arial, sans-serif; font-size: 14px; font-style: normal; font-variant-ligatures: normal; font-variant-caps: normal; font-weight: 400; letter-spacing: normal; orphans: 2; text-align: left; text-indent: 0px; text-transform: none; widows: 2; word-spacing: 0px; -webkit-text-stroke-width: 0px; background-color: rgb(255, 255, 255); text-decoration-thickness: initial; text-decoration-style: initial; text-decoration-color: initial; float: none; display: inline !important;&quot;&gt;10.0.0.0/24&lt;/span&gt;" style="text;html=1;align=center;verticalAlign=middle;resizable=0;points=[];autosize=1;strokeColor=none;fillColor=none;fontColor=#0d0c0c;" parent="40" vertex="1">
                    <mxGeometry x="990" width="90" height="30" as="geometry"/>
                </mxCell>
                <mxCell id="55" value="Public subnet A&amp;amp;C" style="points=[[0,0],[0.25,0],[0.5,0],[0.75,0],[1,0],[1,0.25],[1,0.5],[1,0.75],[1,1],[0.75,1],[0.5,1],[0.25,1],[0,1],[0,0.75],[0,0.5],[0,0.25]];outlineConnect=0;gradientColor=none;html=1;whiteSpace=wrap;fontSize=12;fontStyle=0;container=1;pointerEvents=0;collapsible=0;recursiveResize=0;shape=mxgraph.aws4.group;grIcon=mxgraph.aws4.group_security_group;grStroke=0;strokeColor=#248814;fillColor=#E9F3E6;verticalAlign=top;align=left;spacingLeft=30;fontColor=#248814;dashed=0;" parent="40" vertex="1">
                    <mxGeometry x="60" y="50" width="536" height="150" as="geometry"/>
                </mxCell>
                <mxCell id="101" value="&lt;span style=&quot;background-color: rgb(252, 252, 253);&quot;&gt;80&amp;amp;443番ポート許可&lt;/span&gt;" style="html=1;fontSize=14;fontColor=#121212;fillColor=#f5f5f5;strokeColor=#666666;startArrow=classic;exitX=1;exitY=0.5;exitDx=0;exitDy=0;exitPerimeter=0;shadow=0;startFill=1;" parent="55" edge="1">
                    <mxGeometry x="0.1919" y="-3" relative="1" as="geometry">
                        <mxPoint x="264.5" y="76" as="sourcePoint"/>
                        <mxPoint x="490.92827141862085" y="27.977036814714666" as="targetPoint"/>
                        <mxPoint as="offset"/>
                    </mxGeometry>
                </mxCell>
                <mxCell id="64" value="&lt;span style=&quot;color: rgb(0, 0, 0); font-size: 14px;&quot;&gt;ALB&lt;/span&gt;" style="outlineConnect=0;dashed=0;verticalLabelPosition=bottom;verticalAlign=top;align=center;html=1;shape=mxgraph.aws3.application_load_balancer;fillColor=#F58534;gradientColor=none;fontColor=#a16c5e;" parent="55" vertex="1">
                    <mxGeometry x="193.5" y="40" width="69" height="72" as="geometry"/>
                </mxCell>
                <mxCell id="82" value="" style="sketch=0;outlineConnect=0;fontColor=#232F3E;gradientColor=none;fillColor=#4D27AA;strokeColor=none;dashed=0;verticalLabelPosition=bottom;verticalAlign=top;align=center;html=1;fontSize=12;fontStyle=0;aspect=fixed;pointerEvents=1;shape=mxgraph.aws4.route_table;" parent="55" vertex="1">
                    <mxGeometry x="488.78999999999996" width="47.21" height="46" as="geometry"/>
                </mxCell>
                <mxCell id="79" value="" style="rounded=1;arcSize=10;dashed=1;strokeColor=#ff0000;fillColor=none;gradientColor=none;dashPattern=8 4;strokeWidth=2;verticalAlign=bottom;fontColor=#000000;fontSize=14;" parent="55" vertex="1">
                    <mxGeometry x="133" y="29" width="190" height="110" as="geometry"/>
                </mxCell>
                <mxCell id="80" value="&lt;span style=&quot;color: rgb(22, 25, 31); font-family: &amp;quot;Amazon Ember&amp;quot;, &amp;quot;Helvetica Neue&amp;quot;, Roboto, Arial, sans-serif; font-size: 14px; text-align: start; background-color: rgb(241, 250, 255);&quot;&gt;alb-sg001&lt;/span&gt;" style="text;html=1;align=center;verticalAlign=middle;resizable=0;points=[];autosize=1;strokeColor=none;fillColor=none;" parent="55" vertex="1">
                    <mxGeometry x="122" y="29" width="90" height="30" as="geometry"/>
                </mxCell>
                <mxCell id="74" value="Private subnet" style="points=[[0,0],[0.25,0],[0.5,0],[0.75,0],[1,0],[1,0.25],[1,0.5],[1,0.75],[1,1],[0.75,1],[0.5,1],[0.25,1],[0,1],[0,0.75],[0,0.5],[0,0.25]];outlineConnect=0;gradientColor=none;html=1;whiteSpace=wrap;fontSize=12;fontStyle=0;container=1;pointerEvents=0;collapsible=0;recursiveResize=0;shape=mxgraph.aws4.group;grIcon=mxgraph.aws4.group_security_group;grStroke=0;strokeColor=#147EBA;fillColor=#E6F2F8;verticalAlign=top;align=left;spacingLeft=30;fontColor=#147EBA;dashed=0;" parent="40" vertex="1">
                    <mxGeometry x="60" y="230" width="530" height="210" as="geometry"/>
                </mxCell>
                <mxCell id="47" value="&lt;span style=&quot;color: rgb(22, 25, 31); font-family: &amp;quot;Amazon Ember&amp;quot;, &amp;quot;Helvetica Neue&amp;quot;, Roboto, Arial, sans-serif; font-size: 14px; text-align: start; background-color: rgb(241, 250, 255);&quot;&gt;sg001&lt;/span&gt;" style="text;html=1;align=center;verticalAlign=middle;resizable=0;points=[];autosize=1;strokeColor=none;fillColor=none;" parent="74" vertex="1">
                    <mxGeometry x="136.99999999999997" y="39" width="60" height="30" as="geometry"/>
                </mxCell>
                <mxCell id="83" value="" style="sketch=0;outlineConnect=0;fontColor=#232F3E;gradientColor=none;fillColor=#4D27AA;strokeColor=none;dashed=0;verticalLabelPosition=bottom;verticalAlign=top;align=center;html=1;fontSize=12;fontStyle=0;aspect=fixed;pointerEvents=1;shape=mxgraph.aws4.route_table;" parent="74" vertex="1">
                    <mxGeometry x="479.99999999999994" width="47.21" height="46" as="geometry"/>
                </mxCell>
                <mxCell id="114" style="edgeStyle=none;html=1;shadow=0;labelBackgroundColor=#fcfcfd;fontSize=14;fontColor=#080707;startArrow=classic;startFill=1;" parent="74" edge="1">
                    <mxGeometry relative="1" as="geometry">
                        <mxPoint x="240.80999999999995" y="117.78036102447777" as="sourcePoint"/>
                        <mxPoint x="240.80999999999995" y="130.21963897552223" as="targetPoint"/>
                    </mxGeometry>
                </mxCell>
                <mxCell id="132" value="&lt;span style=&quot;color: rgb(18, 18, 18); font-size: 14px;&quot;&gt;ECS&lt;/span&gt;&lt;br style=&quot;padding: 0px; margin: 0px; color: rgb(18, 18, 18); font-size: 14px;&quot;&gt;&lt;span style=&quot;color: rgb(18, 18, 18); font-size: 14px;&quot;&gt;(Nginxコンテナ起動)&lt;/span&gt;" style="outlineConnect=0;dashed=0;verticalLabelPosition=bottom;verticalAlign=top;align=center;html=1;shape=mxgraph.aws3.ecs;fillColor=#F58534;gradientColor=none;" vertex="1" parent="74">
                    <mxGeometry x="210" y="80" width="72" height="67.5" as="geometry"/>
                </mxCell>
                <mxCell id="109" value="&lt;span style=&quot;background-color: rgb(252, 252, 253);&quot;&gt;ALBからのアクセスのみ許可&lt;/span&gt;" style="html=1;fontSize=14;fontColor=#121212;fillColor=#f5f5f5;strokeColor=#666666;startArrow=classic;shadow=0;startFill=1;exitX=1;exitY=0.24;exitDx=0;exitDy=0;exitPerimeter=0;" parent="74" source="132" edge="1">
                    <mxGeometry x="0.2735" y="-14" relative="1" as="geometry">
                        <mxPoint x="251.80999999999995" y="101.79999999999995" as="sourcePoint"/>
                        <mxPoint x="478.1382714186209" y="31.308839182654992" as="targetPoint"/>
                        <mxPoint as="offset"/>
                    </mxGeometry>
                </mxCell>
                <mxCell id="45" value="" style="rounded=1;arcSize=10;dashed=1;strokeColor=#ff0000;fillColor=none;gradientColor=none;dashPattern=8 4;strokeWidth=2;fontSize=14;verticalAlign=bottom;fontColor=#121212;" parent="74" vertex="1">
                    <mxGeometry x="141" y="40" width="210" height="164" as="geometry"/>
                </mxCell>
                <mxCell id="117" style="edgeStyle=none;html=1;shadow=0;labelBackgroundColor=#fcfcfd;fontSize=14;fontColor=#080808;startArrow=classicThin;startFill=1;strokeColor=#080808;" parent="40" source="64" target="83" edge="1">
                    <mxGeometry relative="1" as="geometry"/>
                </mxCell>
                <mxCell id="71" value="インターネット" style="outlineConnect=0;dashed=0;verticalLabelPosition=bottom;verticalAlign=top;align=center;html=1;shape=mxgraph.aws3.internet_3;fillColor=#D2D3D3;gradientColor=none;fontColor=#0c0d0d;" parent="1" vertex="1">
                    <mxGeometry x="619.4399999999999" y="-370" width="58.89" height="40" as="geometry"/>
                </mxCell>
                <mxCell id="99" value="" style="edgeStyle=none;html=1;fillColor=#d80073;strokeColor=#A50040;startArrow=classic;startFill=1;" parent="1" source="142" target="71" edge="1">
                    <mxGeometry relative="1" as="geometry">
                        <mxPoint x="850" y="-329.3326196394628" as="sourcePoint"/>
                    </mxGeometry>
                </mxCell>
                <mxCell id="69" value="internet gateway" style="sketch=0;outlineConnect=0;fontColor=#232F3E;gradientColor=none;fillColor=#4D27AA;strokeColor=none;dashed=0;verticalLabelPosition=bottom;verticalAlign=top;align=center;html=1;fontSize=12;fontStyle=0;aspect=fixed;pointerEvents=1;shape=mxgraph.aws4.internet_gateway;" parent="1" vertex="1">
                    <mxGeometry x="628.89" y="-120" width="40" height="40" as="geometry"/>
                </mxCell>
                <mxCell id="96" style="edgeStyle=none;html=1;fillColor=#d80073;strokeColor=#A50040;startArrow=classicThin;startFill=1;" parent="1" source="82" edge="1" target="69">
                    <mxGeometry relative="1" as="geometry">
                        <mxPoint x="802.6666628710241" y="-80.00045547711215" as="targetPoint"/>
                        <Array as="points">
                            <mxPoint x="803" y="-40"/>
                            <mxPoint x="650" y="-60"/>
                        </Array>
                    </mxGeometry>
                </mxCell>
                <mxCell id="147" value="AWS Cloud" style="points=[[0,0],[0.25,0],[0.5,0],[0.75,0],[1,0],[1,0.25],[1,0.5],[1,0.75],[1,1],[0.75,1],[0.5,1],[0.25,1],[0,1],[0,0.75],[0,0.5],[0,0.25]];outlineConnect=0;gradientColor=none;html=1;whiteSpace=wrap;fontSize=12;fontStyle=0;container=1;pointerEvents=0;collapsible=0;recursiveResize=0;shape=mxgraph.aws4.group;grIcon=mxgraph.aws4.group_aws_cloud_alt;strokeColor=#232F3E;fillColor=none;verticalAlign=top;align=left;spacingLeft=30;fontColor=#232F3E;dashed=0;" vertex="1" parent="1">
                    <mxGeometry x="360" y="-290" width="700" height="690" as="geometry"/>
                </mxCell>
                <mxCell id="142" value="Amazon Cloudfront" style="sketch=0;outlineConnect=0;fontColor=#232F3E;gradientColor=none;strokeColor=#ffffff;fillColor=#232F3E;dashed=0;verticalLabelPosition=middle;verticalAlign=bottom;align=center;html=1;whiteSpace=wrap;fontSize=10;fontStyle=1;spacing=3;shape=mxgraph.aws4.productIcon;prIcon=mxgraph.aws4.cloudfront;" vertex="1" parent="147">
                    <mxGeometry x="248.88" y="30" width="80" height="110" as="geometry"/>
                </mxCell>
                <mxCell id="141" value="Amazon Route 53" style="sketch=0;outlineConnect=0;fontColor=#232F3E;gradientColor=none;strokeColor=#ffffff;fillColor=#232F3E;dashed=0;verticalLabelPosition=middle;verticalAlign=bottom;align=center;html=1;whiteSpace=wrap;fontSize=10;fontStyle=1;spacing=3;shape=mxgraph.aws4.productIcon;prIcon=mxgraph.aws4.route_53;" vertex="1" parent="147">
                    <mxGeometry x="110" y="30" width="80" height="110" as="geometry"/>
                </mxCell>
                <mxCell id="150" value="ACM&lt;br&gt;（SSL証明書）" style="sketch=0;points=[[0,0,0],[0.25,0,0],[0.5,0,0],[0.75,0,0],[1,0,0],[0,1,0],[0.25,1,0],[0.5,1,0],[0.75,1,0],[1,1,0],[0,0.25,0],[0,0.5,0],[0,0.75,0],[1,0.25,0],[1,0.5,0],[1,0.75,0]];outlineConnect=0;fontColor=#232F3E;gradientColor=#F54749;gradientDirection=north;fillColor=#C7131F;strokeColor=#ffffff;dashed=0;verticalLabelPosition=bottom;verticalAlign=top;align=center;html=1;fontSize=12;fontStyle=0;aspect=fixed;shape=mxgraph.aws4.resourceIcon;resIcon=mxgraph.aws4.certificate_manager_3;" vertex="1" parent="147">
                    <mxGeometry x="249" y="300" width="38" height="38" as="geometry"/>
                </mxCell>
                <mxCell id="152" value="ACM&lt;br&gt;（SSL証明書）" style="sketch=0;points=[[0,0,0],[0.25,0,0],[0.5,0,0],[0.75,0,0],[1,0,0],[0,1,0],[0.25,1,0],[0.5,1,0],[0.75,1,0],[1,1,0],[0,0.25,0],[0,0.5,0],[0,0.75,0],[1,0.25,0],[1,0.5,0],[1,0.75,0]];outlineConnect=0;fontColor=#232F3E;gradientColor=#F54749;gradientDirection=north;fillColor=#C7131F;strokeColor=#ffffff;dashed=0;verticalLabelPosition=bottom;verticalAlign=top;align=center;html=1;fontSize=12;fontStyle=0;aspect=fixed;shape=mxgraph.aws4.resourceIcon;resIcon=mxgraph.aws4.certificate_manager_3;" vertex="1" parent="147">
                    <mxGeometry x="314" y="82" width="38" height="38" as="geometry"/>
                </mxCell>
                <mxCell id="148" value="" style="edgeStyle=none;html=1;fillColor=#d80073;strokeColor=#A50040;startArrow=classic;startFill=1;" edge="1" parent="1" source="69" target="142">
                    <mxGeometry relative="1" as="geometry">
                        <mxPoint x="658.8814102564104" y="-260" as="sourcePoint"/>
                        <mxPoint x="658.8844871794872" y="-380" as="targetPoint"/>
                    </mxGeometry>
                </mxCell>
            </root>
        </mxGraphModel>
    </diagram>
</mxfile>